{"title":"Endure.2010.DvDRip.XviD.Ac3.Feel-Free","uid":6381716,"size":817943085,"categoryP":"video","categoryS":"movies","magnet":"?xt=urn:btih:8d0f5075871713eb0c798afd3e58b2fdf55f0922&amp;dn=Endure.2010.DvDRip.XviD.Ac3.Feel-Free&amp;tr=udp%3A%2F%2Ftracker.openbittorrent.com%3A80&amp;tr=udp%3A%2F%2Fopen.demonii.com%3A1337&amp;tr=udp%3A%2F%2Ftracker.coppersurfer.tk%3A6969&amp;tr=udp%3A%2F%2Fexodus.desync.com%3A6969","seeders":0,"leechers":1,"uploader":"SaM","files":10,"time":1305051893,"description":"Genre:Thriller\nLanguage:English\nIMDb:http://www.imdb.com/title/tt1230372/\nSource:DVD Thanks!\n\nFormat : AVI\nFormat/Info : Audio Video Interleave\nFile size : 778 MiB\nDuration : 1h 31mn\nOverall bit rate : 1 191 Kbps\n\nVideo\nID : 0\nFormat : MPEG-4 Visual\nFormat profile : Advanced Simple@L5\nFormat settings, BVOP : Yes\nFormat settings, QPel : No\nFormat settings, GMC : No warppoints\nFormat settings, Matrix : Default (H.263)\nCodec ID : XVID\nCodec ID/Hint : XviD\nDuration : 1h 31mn\nBit rate : 734 Kbps\nWidth : 624 pixels\nHeight : 352 pixels\nDisplay aspect ratio : 16:9\nFrame rate : 23.976 fps\nColor space : YUV\nChroma subsampling : 4:2:0\nBit depth : 8 bits\nScan type : Progressive\nBits/(Pixel*Frame) : 0.139\nStream size : 480 MiB (62%)\nWriting library : XviD 1.2.1 (UTC 2008-12-04)\n\nAudio\nID : 1\nFormat : AC-3\nFormat/Info : Audio Coding 3\nMode extension : CM (complete main)\nCodec ID : 2000\nDuration : 1h 31mn\nBit rate mode : Constant\nBit rate : 448 Kbps\nChannel(s) : 6 channels\nChannel positions : Front: L C R, Side: L R, LFE\nSampling rate : 48.0 KHz\nBit depth : 16 bits\nStream size : 293 MiB (38%)\nAlignment : Aligned on interleaves\nInterleave, duration : 42 ms (1.00 video frame)\nInterleave, preload duration : 512 ms\n\n\nPlot:\nAfter a shocking photo of a young woman is found inside the twisted metal of a\nfatal car crash, veteran detective Emory Lloyd must risk everything to identify\nand find the woman before it's too late.\n &lt;a href=&quot;\nhttp://img577.imageshack.us/img577/9786/vlcsnap00001jy.png&quot; rel=&quot;nofollow&quot; target=&quot;_NEW&quot;&gt;\nhttp://img577.imageshack.us/img577/9786/vlcsnap00001jy.png&lt;/a&gt;\n &lt;a href=&quot;\nhttp://img69.imageshack.us/img69/1062/vlcsnap00002tm.png&quot; rel=&quot;nofollow&quot; target=&quot;_NEW&quot;&gt;\nhttp://img69.imageshack.us/img69/1062/vlcsnap00002tm.png&lt;/a&gt;\n &lt;a href=&quot;\nhttp://img831.imageshack.us/img831/5919/vlcsnap00003i.png&quot; rel=&quot;nofollow&quot; target=&quot;_NEW&quot;&gt;\nhttp://img831.imageshack.us/img831/5919/vlcsnap00003i.png&lt;/a&gt;\n &lt;a href=&quot;\nhttp://img828.imageshack.us/img828/4230/vlcsnap00006rw.png&quot; rel=&quot;nofollow&quot; target=&quot;_NEW&quot;&gt;\nhttp://img828.imageshack.us/img828/4230/vlcsnap00006rw.png&lt;/a&gt;\n\nGreets:\n\nINK,CRYS,IMAGINE,LKRG,FXG,3Li,FLAWL3SS,TA,iLLUSiON,ViSiON,DTRG SAFCuk009,LU,TheFalcon007,MYSTiC,PrisM,Noir,WBZ,LAP,Rx,Kingdom,SAFCuk009+Fabreezy,HDLiTE,\nTWiZTED,ExtraTorrentRG.ELEKTRI4KA,MAGNAT,CM8\nAnd to all the other p2p grps past and present\n\n\n\n\nMake sure its a real Feel-Free release @ extratorrent","torrent":{"xt":"urn:btih:8d0f5075871713eb0c798afd3e58b2fdf55f0922","amp;dn":"Endure.2010.DvDRip.XviD.Ac3.Feel-Free","amp;tr":["udp%3A%2F%2Ftracker.openbittorrent.com%3A80","udp%3A%2F%2Fopen.demonii.com%3A1337","udp%3A%2F%2Ftracker.coppersurfer.tk%3A6969","udp%3A%2F%2Fexodus.desync.com%3A6969"],"infoHash":"8d0f5075871713eb0c798afd3e58b2fdf55f0922","infoHashBuffer":{"type":"Buffer","data":[141,15,80,117,135,23,19,235,12,121,138,253,62,88,178,253,245,95,9,34]},"announce":[],"urlList":[]}}